<svg id="RULETA_V3" data-name="RULETA V3" xmlns="http://www.w3.org/2000/svg" viewBox="0 0 456.3 225.1"><defs><style>.cls-1{fill:#01aac4;}.cls-2{fill:#f7eb2e;}</style></defs><path class="cls-1" d="M302.1,34.8l-109.4-.6,19.5.3L55.7,258.9s146.5-.1,149.6-.4l96.9.4S468.3,176,468.3,146.8C468.2,119.5,302.1,34.8,302.1,34.8Z" transform="translate(-12.1 -33.8)"/><polygon class="cls-1" points="89.6 225.1 262.9 0 173.9 0 0 225.1 89.6 225.1"/><path class="cls-2" d="M413.6,138.8,325.6,88a11.3,11.3,0,0,0-16.9,9.7V199.3a11.3,11.3,0,0,0,16.9,9.7l88-50.8A11.2,11.2,0,0,0,413.6,138.8Z" transform="translate(-12.1 -33.8)"/></svg>