<?xml version="1.0" encoding="utf-8"?>
<!-- Generator: Adobe Illustrator 26.0.3, SVG Export Plug-In . SVG Version: 6.00 Build 0)  -->
<svg version="1.1" id="RULETA_V3" xmlns="http://www.w3.org/2000/svg" xmlns:xlink="http://www.w3.org/1999/xlink" x="0px" y="0px"
	 viewBox="0 0 1087.7 1126.7" style="enable-background:new 0 0 1087.7 1126.7;" xml:space="preserve">
<style type="text/css">
	.st0{fill:#81313A;}
	.st1{fill:#5E242C;}
	.st2{fill:#CE8EAB;}
	.st3{fill:#D18FC0;}
	.st4{fill:#D08DD3;}
	.st5{fill:#B88ED6;}
	.st6{fill:#A68DD8;}
	.st7{fill:#A4ADE0;}
	.st8{fill:#A4C6DD;}
	.st9{fill:#BFBFBF;}
	.st10{fill:#BBEFA0;}
	.st11{fill:#E2F2A0;}
	.st12{fill:#D6C69D;}
	.st13{fill:#D8BB9C;}
	.st14{fill:#DBAF9C;}
	.st15{fill:#DD9B9B;}
	.st16{fill:#FFFFFF;}
	.st17{font-family:'PublicoBanner-Bold';}
	.st18{font-size:79.3948px;}
	.st19{font-size:79.61px;}
	.st20{font-size:79.36px;}
	.st21{font-size:79.8643px;}
	.st22{font-size:79.46px;}
	.st23{font-size:79.777px;}
	.st24{font-size:79.3628px;}
	.st25{font-size:79.7889px;}
	.st26{font-size:79.3926px;}
	.st27{font-size:87.79px;}
	.st28{display:none;fill:#5E242C;}
	.st29{fill:#933A46;}
</style>
<g id="BASE">
	<circle class="st0" cx="543.8" cy="563.3" r="523.5"/>
	<ellipse class="st1" cx="543.8" cy="563.3" rx="407" ry="401.9"/>
</g>
<g id="RUleta">
	<path class="st2" d="M543.8,563.3l174,356.8c-56.2,27.4-111.5,40.2-174,40.2V563.3z"/>
	<path class="st3" d="M543.8,563.3l312.8,244.4c-38.5,49.2-82.7,85-138.8,112.4L543.8,563.3z"/>
	<path class="st4" d="M543.8,563.3l388.3,82.5c-13,61.1-37,112.6-75.5,161.9L543.8,563.3z"/>
	<path class="st5" d="M543.8,563.3L930.6,474c14,60.9,14.5,110.7,1.5,171.8L543.8,563.3z"/>
	<path class="st6" d="M543.8,563.3l308.5-249.9c39.3,48.6,64.2,99.7,78.3,160.5L543.8,563.3z"/>
	<path class="st7" d="M543.8,563.3l167.7-359.8c56.6,26.4,101.4,61.4,140.7,110L543.8,563.3z"/>
	<path class="st8" d="M543.8,563.3v-397c62.5,0,111.2,10.8,167.8,37.2L543.8,563.3z"/>
	<path class="st9" d="M543.8,563.3l-174-356.8c56.2-27.4,111.5-40.2,174-40.2V563.3z"/>
	<path class="st10" d="M543.8,563.3L231,318.9c38.5-49.2,82.6-85,138.8-112.4L543.8,563.3z"/>
	<path class="st11" d="M543.8,563.3l-388.3-82.5c13-61.1,37-112.6,75.5-161.9L543.8,563.3z"/>
	<path class="st12" d="M543.8,563.3L157,652.6c-14-60.9-14.5-110.7-1.5-171.8L543.8,563.3z"/>
	<path class="st13" d="M543.8,563.3L235.3,813.1c-39.3-48.6-64.2-99.6-78.3-160.5L543.8,563.3z"/>
	<path class="st14" d="M543.8,563.3L376,923.1c-56.6-26.4-101.4-61.4-140.7-110L543.8,563.3z"/>
	<path class="st15" d="M543.8,563.3v397c-62.5,0-111.1-10.8-167.8-37.2L543.8,563.3z"/>
</g>
<g id="NUMEROS">
	<text transform="matrix(0.2655 0.9641 -0.9641 0.2655 437.2369 199.467)" class="st16 st17 st18">4</text>
	<text transform="matrix(-0.5639 0.8259 -0.8259 -0.5639 753.8038 246.9384)" class="st16 st17 st19">6</text>
	<text transform="matrix(-0.9123 0.4095 -0.4095 -0.9123 865.6761 368.8159)" class="st16 st17 st19">7</text>
	<text transform="matrix(-0.9999 1.349649e-02 -1.349649e-02 -0.9999 912.5616 519.0606)" class="st16 st17 st19">8</text>
	<text transform="matrix(-0.9084 -0.4182 0.4182 -0.9084 896.5718 686.5092)" class="st16 st17 st20">9</text>
	<text transform="matrix(-0.6518 -0.7584 0.7584 -0.6518 811.8983 827.8387)" class="st16 st17 st19">10</text>
	<text transform="matrix(-0.2091 -0.9779 0.9779 -0.2091 658.14 920.4747)" class="st16 st17 st21">11</text>
	<text transform="matrix(0.1775 -0.9841 0.9841 0.1775 489.6311 938.7974)" class="st16 st17 st19">12</text>
	<text transform="matrix(0.5839 -0.8118 0.8118 0.5839 331.7761 880.8805)" class="st16 st17 st22">13</text>
	<text transform="matrix(0.6756 0.7373 -0.7373 0.6756 282.9677 290.327)" class="st16 st17 st23">3</text>
	<text transform="matrix(0.908 0.4189 -0.4189 0.908 191.6588 425.6943)" class="st16 st17 st24">2</text>
	<text transform="matrix(0.9999 -1.165288e-02 1.165288e-02 0.9999 170.8128 592.7015)" class="st16 st17 st25">1</text>
	<text transform="matrix(0.9179 -0.3968 0.3968 0.9179 208.9045 757.0265)" class="st16 st17 st26">1</text>
	<text transform="matrix(0.9179 -0.3968 0.3968 0.9179 236.1936 745.2269)" class="st16 st17 st26">4</text>
	<text transform="matrix(-0.2079 0.9782 -0.9782 -0.2079 587.1691 186.7808)" class="st16 st17 st27">5</text>
</g>
<circle class="st0" cx="543.8" cy="563.3" r="158.7"/>
<path class="st28" d="M414.9,652.2c-47.8-71.4-28.6-168.1,42.8-215.9s168.1-28.6,215.9,42.8c9.6,14.4,16.8,30.3,21.2,47
	c-14.4-86.4-96.2-144.8-182.7-130.4c-86.4,14.4-144.8,96.2-130.4,182.7C386.2,605.5,397.6,630.9,414.9,652.2z"/>
<circle class="st29" cx="543.8" cy="563.3" r="148.8"/>
</svg>
